# xmcd CD database file
#
# Track frame offsets:
#	150
#	14047
#	27942
#	41287
#	54640
#	68851
#	81936
#	94914
#	108267
#	122512
#	135041
#	148913
#	162597
#	175200
#	189493
#	202680
#
# Disc length: 2908 seconds
#
# Revision: 0
# Processed by: cddbd v1.5.2PL0 Copyright (c) Steve Scherf et al.
# Submitted via: CDex 1.51
#
DISCID=d60b5a10
DTITLE=Various Artist - Jazz - The Essential Collection disc1
DYEAR=1900
DGENRE=Jazz
TTITLE0=01. Bessie Smith - St Louis Blues
TTITLE1=02. Art Brigode and His Fourteen Virginians - Yes Sir_ That's My Baby
TTITLE2=03. Clarence Williams' Blue Five - Cake Walking Babies From Home
TTITLE3=04. Abe Lyuman's California Orchestra - Shake That Thing
TTITLE4=05. Benny Moten's Kansas City Orchestra - Missouri Wobble
TTITLE5=06. Birt Firman and His Orchestra - Black Bottom
TTITLE6=07. Fletcher Henderson and His Orchestra - Clarinet Marmalade
TTITLE7=08. Jelly Roll Morton's Red Hot Peppers - Jelly Roll Blues
TTITLE8=09. Johnny Dodds - Perdido Street Blues
TTITLE9=10. King Oliver and His Orchestra - Wa Wa Wa
TTITLE10=11. Louis Armstrong and His Hot Five - Cornet Chop Suey
TTITLE11=12. Bix Beiderbeke - Trumbology
TTITLE12=13. Coleman Hawkins - Sensation
TTITLE13=14. Duke Ellington and His Orchestra - Creole Love Call
TTITLE14=15. Eddie Lang and Joe Venuti - Four String Joe
TTITLE15=16. Fats Waller - Red Hot Dan
EXTD=
EXTT0=
EXTT1=
EXTT2=
EXTT3=
EXTT4=
EXTT5=
EXTT6=
EXTT7=
EXTT8=
EXTT9=
EXTT10=
EXTT11=
EXTT12=
EXTT13=
EXTT14=
EXTT15=
PLAYORDER=
